<svg id="Layer_3" data-name="Layer 3" xmlns="http://www.w3.org/2000/svg" viewBox="0 0 192 192"><defs><style>.cls-1{fill:none;stroke:#181331;stroke-linecap:round;stroke-linejoin:round;stroke-width:5.00px;}.cls-2{fill:#7855f3;}</style></defs><line class="cls-1" x1="104.97" y1="124.84" x2="107.15" y2="164.71"></line><line class="cls-1" x1="85.36" y1="164.71" x2="87.54" y2="124.84"></line><path class="cls-1" d="M82.57,165.06h27.38a15,15,0,0,1,15,15v1.34a0,0,0,0,1,0,0H67.57a0,0,0,0,1,0,0v-1.34A15,15,0,0,1,82.57,165.06Z"></path><path class="cls-1" d="M128.28,10.6h19.29L145.67,77A49.33,49.33,0,0,1,96.36,125h0A49.33,49.33,0,0,1,47.06,77L45.16,10.6h70"></path><path class="cls-1" d="M144,88.5a22.76,22.76,0,0,0,19.74-22.56V27.2H147.09"></path><path class="cls-1" d="M48.76,88.59a22.76,22.76,0,0,1-20.5-22.65V27.2H45.63"></path><polygon class="cls-2" points="96.36 43.52 101.72 60 119.05 60 105.03 70.19 110.39 86.67 96.36 76.49 82.34 86.67 87.7 70.19 73.67 60 91.01 60 96.36 43.52"></polygon></svg>